<?xml version="1.0" encoding="UTF-8" standalone="no"?><svg xmlns="http://www.w3.org/2000/svg" xmlns:xlink="http://www.w3.org/1999/xlink" contentScriptType="application/ecmascript" contentStyleType="text/css" height="229px" preserveAspectRatio="none" style="width:141px;height:229px;" version="1.1" viewBox="0 0 141 229" width="141px" zoomAndPan="magnify"><defs><filter height="300%" id="f17j52na7srq9k" width="300%" x="-1" y="-1"><feGaussianBlur result="blurOut" stdDeviation="2.0"/><feColorMatrix in="blurOut" result="blurOut2" type="matrix" values="0 0 0 0 0 0 0 0 0 0 0 0 0 0 0 0 0 0 .4 0"/><feOffset dx="4.0" dy="4.0" in="blurOut2" result="blurOut3"/><feBlend in="SourceGraphic" in2="blurOut3" mode="normal"/></filter></defs><g><ellipse cx="60.5" cy="20" fill="#000000" filter="url(#f17j52na7srq9k)" rx="10" ry="10" style="stroke: none; stroke-width: 1.0;"/><rect fill="#FEFECE" filter="url(#f17j52na7srq9k)" height="33.9688" rx="12.5" ry="12.5" style="stroke: #A80036; stroke-width: 1.5;" width="47" x="37" y="98.4023"/><text fill="#000000" font-family="sans-serif" font-size="12" lengthAdjust="spacingAndGlyphs" textLength="27" x="47" y="119.541">do X</text><polygon fill="#FEFECE" filter="url(#f17j52na7srq9k)" points="32,50,89,50,101,62,89,74,32,74,20,62,32,50" style="stroke: #A80036; stroke-width: 1.5;"/><text fill="#000000" font-family="sans-serif" font-size="11" lengthAdjust="spacingAndGlyphs" textLength="23" x="64.5" y="84.2104">true</text><text fill="#000000" font-family="sans-serif" font-size="11" lengthAdjust="spacingAndGlyphs" textLength="57" x="32" y="65.8081">condition?</text><text fill="#000000" font-family="sans-serif" font-size="11" lengthAdjust="spacingAndGlyphs" textLength="28" x="101" y="59.4058">false</text><polygon fill="#FEFECE" filter="url(#f17j52na7srq9k)" points="60.5,152.3711,72.5,164.3711,60.5,176.3711,48.5,164.3711,60.5,152.3711" style="stroke: #A80036; stroke-width: 1.5;"/><ellipse cx="60.5" cy="207.3711" fill="#FFFFFF" filter="url(#f17j52na7srq9k)" rx="11" ry="11" style="stroke: #000000; stroke-width: 1.0;"/><ellipse cx="60.5" cy="207.3711" fill="#000000" rx="6" ry="6" style="stroke: #7F7F7F; stroke-width: 1.0;"/><line style="stroke: #A80036; stroke-width: 1.5;" x1="60.5" x2="60.5" y1="74" y2="98.4023"/><polygon fill="#A80036" points="56.5,88.4023,60.5,98.4023,64.5,88.4023,60.5,92.4023" style="stroke: #A80036; stroke-width: 1.0;"/><line style="stroke: #A80036; stroke-width: 1.5;" x1="101" x2="113" y1="62" y2="62"/><polygon fill="#A80036" points="109,105.3867,113,115.3867,117,105.3867,113,109.3867" style="stroke: #A80036; stroke-width: 1.5;"/><line style="stroke: #A80036; stroke-width: 1.5;" x1="113" x2="113" y1="62" y2="164.3711"/><line style="stroke: #A80036; stroke-width: 1.5;" x1="113" x2="72.5" y1="164.3711" y2="164.3711"/><polygon fill="#A80036" points="82.5,160.3711,72.5,164.3711,82.5,168.3711,78.5,164.3711" style="stroke: #A80036; stroke-width: 1.0;"/><line style="stroke: #A80036; stroke-width: 1.5;" x1="60.5" x2="60.5" y1="132.3711" y2="152.3711"/><polygon fill="#A80036" points="56.5,142.3711,60.5,152.3711,64.5,142.3711,60.5,146.3711" style="stroke: #A80036; stroke-width: 1.0;"/><line style="stroke: #A80036; stroke-width: 1.5;" x1="60.5" x2="60.5" y1="30" y2="50"/><polygon fill="#A80036" points="56.5,40,60.5,50,64.5,40,60.5,44" style="stroke: #A80036; stroke-width: 1.0;"/><line style="stroke: #A80036; stroke-width: 1.5;" x1="60.5" x2="60.5" y1="176.3711" y2="196.3711"/><polygon fill="#A80036" points="56.5,186.3711,60.5,196.3711,64.5,186.3711,60.5,190.3711" style="stroke: #A80036; stroke-width: 1.0;"/><!--
@startuml if

start

if (condition?) then (true)
    :do X;
else (false)
endif

stop

@enduml

PlantUML version 1.2019.09(Mon Aug 26 17:19:51 BST 2019)
(GPL source distribution)
Java Runtime: OpenJDK Runtime Environment
JVM: OpenJDK 64-Bit Server VM
Java Version: 14+36
Operating System: Linux
OS Version: 5.4.0-28-generic
Default Encoding: UTF-8
Language: en
Country: GB
--></g></svg>