<?xml version="1.0" encoding="UTF-8" standalone="no"?><svg xmlns="http://www.w3.org/2000/svg" xmlns:xlink="http://www.w3.org/1999/xlink" contentScriptType="application/ecmascript" contentStyleType="text/css" height="200px" preserveAspectRatio="none" style="width:169px;height:200px;" version="1.1" viewBox="0 0 169 200" width="169px" zoomAndPan="magnify"><defs><filter height="300%" id="fi8kkw8isjlra" width="300%" x="-1" y="-1"><feGaussianBlur result="blurOut" stdDeviation="2.0"/><feColorMatrix in="blurOut" result="blurOut2" type="matrix" values="0 0 0 0 0 0 0 0 0 0 0 0 0 0 0 0 0 0 .4 0"/><feOffset dx="4.0" dy="4.0" in="blurOut2" result="blurOut3"/><feBlend in="SourceGraphic" in2="blurOut3" mode="normal"/></filter></defs><g><ellipse cx="84" cy="20" fill="#000000" filter="url(#fi8kkw8isjlra)" rx="10" ry="10" style="stroke: none; stroke-width: 1.0;"/><polygon fill="#FEFECE" filter="url(#fi8kkw8isjlra)" points="55.5,50,112.5,50,124.5,62,112.5,74,55.5,74,43.5,62,55.5,50" style="stroke: #A80036; stroke-width: 1.5;"/><text fill="#000000" font-family="sans-serif" font-size="11" lengthAdjust="spacingAndGlyphs" textLength="57" x="55.5" y="65.8081">condition?</text><text fill="#000000" font-family="sans-serif" font-size="11" lengthAdjust="spacingAndGlyphs" textLength="23" x="20.5" y="59.4058">true</text><text fill="#000000" font-family="sans-serif" font-size="11" lengthAdjust="spacingAndGlyphs" textLength="28" x="124.5" y="59.4058">false</text><rect fill="#FEFECE" filter="url(#fi8kkw8isjlra)" height="33.9688" rx="12.5" ry="12.5" style="stroke: #A80036; stroke-width: 1.5;" width="47" x="10" y="84"/><text fill="#000000" font-family="sans-serif" font-size="12" lengthAdjust="spacingAndGlyphs" textLength="27" x="20" y="105.1387">do X</text><rect fill="#FEFECE" filter="url(#fi8kkw8isjlra)" height="33.9688" rx="12.5" ry="12.5" style="stroke: #A80036; stroke-width: 1.5;" width="47" x="111" y="84"/><text fill="#000000" font-family="sans-serif" font-size="12" lengthAdjust="spacingAndGlyphs" textLength="27" x="121" y="105.1387">do Y</text><polygon fill="#FEFECE" filter="url(#fi8kkw8isjlra)" points="84,123.9688,96,135.9688,84,147.9688,72,135.9688,84,123.9688" style="stroke: #A80036; stroke-width: 1.5;"/><ellipse cx="84" cy="178.9688" fill="#FFFFFF" filter="url(#fi8kkw8isjlra)" rx="11" ry="11" style="stroke: #000000; stroke-width: 1.0;"/><ellipse cx="84" cy="178.9688" fill="#000000" rx="6" ry="6" style="stroke: #7F7F7F; stroke-width: 1.0;"/><line style="stroke: #A80036; stroke-width: 1.5;" x1="43.5" x2="33.5" y1="62" y2="62"/><line style="stroke: #A80036; stroke-width: 1.5;" x1="33.5" x2="33.5" y1="62" y2="84"/><polygon fill="#A80036" points="29.5,74,33.5,84,37.5,74,33.5,78" style="stroke: #A80036; stroke-width: 1.0;"/><line style="stroke: #A80036; stroke-width: 1.5;" x1="124.5" x2="134.5" y1="62" y2="62"/><line style="stroke: #A80036; stroke-width: 1.5;" x1="134.5" x2="134.5" y1="62" y2="84"/><polygon fill="#A80036" points="130.5,74,134.5,84,138.5,74,134.5,78" style="stroke: #A80036; stroke-width: 1.0;"/><line style="stroke: #A80036; stroke-width: 1.5;" x1="33.5" x2="33.5" y1="117.9688" y2="135.9688"/><line style="stroke: #A80036; stroke-width: 1.5;" x1="33.5" x2="72" y1="135.9688" y2="135.9688"/><polygon fill="#A80036" points="62,131.9688,72,135.9688,62,139.9688,66,135.9688" style="stroke: #A80036; stroke-width: 1.0;"/><line style="stroke: #A80036; stroke-width: 1.5;" x1="134.5" x2="134.5" y1="117.9688" y2="135.9688"/><line style="stroke: #A80036; stroke-width: 1.5;" x1="134.5" x2="96" y1="135.9688" y2="135.9688"/><polygon fill="#A80036" points="106,131.9688,96,135.9688,106,139.9688,102,135.9688" style="stroke: #A80036; stroke-width: 1.0;"/><line style="stroke: #A80036; stroke-width: 1.5;" x1="84" x2="84" y1="30" y2="50"/><polygon fill="#A80036" points="80,40,84,50,88,40,84,44" style="stroke: #A80036; stroke-width: 1.0;"/><line style="stroke: #A80036; stroke-width: 1.5;" x1="84" x2="84" y1="147.9688" y2="167.9688"/><polygon fill="#A80036" points="80,157.9688,84,167.9688,88,157.9688,84,161.9688" style="stroke: #A80036; stroke-width: 1.0;"/><!--
@startuml if_else

start

if (condition?) then (true)
    :do X;
else (false)
    :do Y;
endif

stop

@enduml

PlantUML version 1.2019.09(Mon Aug 26 17:19:51 BST 2019)
(GPL source distribution)
Java Runtime: OpenJDK Runtime Environment
JVM: OpenJDK 64-Bit Server VM
Java Version: 14+36
Operating System: Linux
OS Version: 5.4.0-28-generic
Default Encoding: UTF-8
Language: en
Country: GB
--></g></svg>