<?xml version="1.0" encoding="UTF-8" standalone="no"?><svg xmlns="http://www.w3.org/2000/svg" xmlns:xlink="http://www.w3.org/1999/xlink" contentScriptType="application/ecmascript" contentStyleType="text/css" height="213px" preserveAspectRatio="none" style="width:304px;height:213px;" version="1.1" viewBox="0 0 304 213" width="304px" zoomAndPan="magnify"><defs><filter height="300%" id="fxw17k9a2b7hg" width="300%" x="-1" y="-1"><feGaussianBlur result="blurOut" stdDeviation="2.0"/><feColorMatrix in="blurOut" result="blurOut2" type="matrix" values="0 0 0 0 0 0 0 0 0 0 0 0 0 0 0 0 0 0 .4 0"/><feOffset dx="4.0" dy="4.0" in="blurOut2" result="blurOut3"/><feBlend in="SourceGraphic" in2="blurOut3" mode="normal"/></filter></defs><g><ellipse cx="156.5" cy="20" fill="#000000" filter="url(#fxw17k9a2b7hg)" rx="10" ry="10" style="stroke: none; stroke-width: 1.0;"/><polygon fill="#FEFECE" filter="url(#fxw17k9a2b7hg)" points="32,50,100,50,112,62,100,74,32,74,20,62,32,50" style="stroke: #A80036; stroke-width: 1.5;"/><text fill="#000000" font-family="sans-serif" font-size="11" lengthAdjust="spacingAndGlyphs" textLength="23" x="70" y="84.2104">true</text><text fill="#000000" font-family="sans-serif" font-size="11" lengthAdjust="spacingAndGlyphs" textLength="68" x="32" y="65.8081">condition 1?</text><rect fill="#FEFECE" filter="url(#fxw17k9a2b7hg)" height="33.9688" rx="12.5" ry="12.5" style="stroke: #A80036; stroke-width: 1.5;" width="47" x="42.5" y="106.8047"/><text fill="#000000" font-family="sans-serif" font-size="12" lengthAdjust="spacingAndGlyphs" textLength="27" x="52.5" y="127.9434">do X</text><polygon fill="#FEFECE" filter="url(#fxw17k9a2b7hg)" points="144,50,212,50,224,62,212,74,144,74,132,62,144,50" style="stroke: #A80036; stroke-width: 1.5;"/><text fill="#000000" font-family="sans-serif" font-size="11" lengthAdjust="spacingAndGlyphs" textLength="23" x="182" y="84.2104">true</text><text fill="#000000" font-family="sans-serif" font-size="11" lengthAdjust="spacingAndGlyphs" textLength="68" x="144" y="65.8081">condition 2?</text><text fill="#000000" font-family="sans-serif" font-size="11" lengthAdjust="spacingAndGlyphs" textLength="28" x="224" y="59.4058">false</text><rect fill="#FEFECE" filter="url(#fxw17k9a2b7hg)" height="33.9688" rx="12.5" ry="12.5" style="stroke: #A80036; stroke-width: 1.5;" width="47" x="154.5" y="106.8047"/><text fill="#000000" font-family="sans-serif" font-size="12" lengthAdjust="spacingAndGlyphs" textLength="27" x="164.5" y="127.9434">do Y</text><rect fill="#FEFECE" filter="url(#fxw17k9a2b7hg)" height="33.9688" rx="12.5" ry="12.5" style="stroke: #A80036; stroke-width: 1.5;" width="49" x="244" y="103.4023"/><text fill="#000000" font-family="sans-serif" font-size="12" lengthAdjust="spacingAndGlyphs" textLength="29" x="254" y="124.541">do Z</text><ellipse cx="156.5" cy="191.7734" fill="#FFFFFF" filter="url(#fxw17k9a2b7hg)" rx="11" ry="11" style="stroke: #000000; stroke-width: 1.0;"/><ellipse cx="156.5" cy="191.7734" fill="#000000" rx="6" ry="6" style="stroke: #7F7F7F; stroke-width: 1.0;"/><line style="stroke: #A80036; stroke-width: 1.5;" x1="66" x2="66" y1="74" y2="106.8047"/><polygon fill="#A80036" points="62,96.8047,66,106.8047,70,96.8047,66,100.8047" style="stroke: #A80036; stroke-width: 1.0;"/><line style="stroke: #A80036; stroke-width: 1.5;" x1="66" x2="66" y1="140.7734" y2="160.7734"/><polygon fill="#A80036" points="62,150.7734,66,160.7734,70,150.7734,66,154.7734" style="stroke: #A80036; stroke-width: 1.0;"/><line style="stroke: #A80036; stroke-width: 1.5;" x1="178" x2="178" y1="74" y2="106.8047"/><polygon fill="#A80036" points="174,96.8047,178,106.8047,182,96.8047,178,100.8047" style="stroke: #A80036; stroke-width: 1.0;"/><line style="stroke: #A80036; stroke-width: 1.5;" x1="178" x2="178" y1="140.7734" y2="160.7734"/><polygon fill="#A80036" points="174,150.7734,178,160.7734,182,150.7734,178,154.7734" style="stroke: #A80036; stroke-width: 1.0;"/><line style="stroke: #A80036; stroke-width: 1.5;" x1="112" x2="132" y1="62" y2="62"/><polygon fill="#A80036" points="122,58,132,62,122,66,126,62" style="stroke: #A80036; stroke-width: 1.0;"/><line style="stroke: #A80036; stroke-width: 1.5;" x1="156.5" x2="156.5" y1="30" y2="35"/><line style="stroke: #A80036; stroke-width: 1.5;" x1="156.5" x2="66" y1="35" y2="35"/><line style="stroke: #A80036; stroke-width: 1.5;" x1="66" x2="66" y1="35" y2="50"/><polygon fill="#A80036" points="62,40,66,50,70,40,66,44" style="stroke: #A80036; stroke-width: 1.0;"/><line style="stroke: #A80036; stroke-width: 1.5;" x1="224" x2="268.5" y1="62" y2="62"/><line style="stroke: #A80036; stroke-width: 1.5;" x1="268.5" x2="268.5" y1="62" y2="103.4023"/><polygon fill="#A80036" points="264.5,93.4023,268.5,103.4023,272.5,93.4023,268.5,97.4023" style="stroke: #A80036; stroke-width: 1.0;"/><line style="stroke: #A80036; stroke-width: 1.5;" x1="268.5" x2="268.5" y1="137.3711" y2="160.7734"/><polygon fill="#A80036" points="264.5,150.7734,268.5,160.7734,272.5,150.7734,268.5,154.7734" style="stroke: #A80036; stroke-width: 1.0;"/><line style="stroke: #A80036; stroke-width: 1.5;" x1="66" x2="268.5" y1="160.7734" y2="160.7734"/><line style="stroke: #A80036; stroke-width: 1.5;" x1="156.5" x2="156.5" y1="160.7734" y2="180.7734"/><polygon fill="#A80036" points="152.5,170.7734,156.5,180.7734,160.5,170.7734,156.5,174.7734" style="stroke: #A80036; stroke-width: 1.0;"/><!--
@startuml if_else_chain

start

if (condition 1?) then (true)
    :do X;
elseif (condition 2?) then (true)
    :do Y;
else (false)
    :do Z;
endif

stop

@enduml

PlantUML version 1.2019.09(Mon Aug 26 17:19:51 BST 2019)
(GPL source distribution)
Java Runtime: OpenJDK Runtime Environment
JVM: OpenJDK 64-Bit Server VM
Java Version: 14+36
Operating System: Linux
OS Version: 5.4.0-28-generic
Default Encoding: UTF-8
Language: en
Country: GB
--></g></svg>